<?xml version="1.0" encoding="UTF-8" standalone="no"?>
<!-- Created with Inkscape (http://www.inkscape.org/) -->

<svg
   xmlns:dc="http://purl.org/dc/elements/1.1/"
   xmlns:cc="http://creativecommons.org/ns#"
   xmlns:rdf="http://www.w3.org/1999/02/22-rdf-syntax-ns#"
   xmlns:svg="http://www.w3.org/2000/svg"
   xmlns="http://www.w3.org/2000/svg"
   xmlns:sodipodi="http://sodipodi.sourceforge.net/DTD/sodipodi-0.dtd"
   xmlns:inkscape="http://www.inkscape.org/namespaces/inkscape"
   width="50"
   height="11.5"
   id="svg2"
   version="1.1"
   inkscape:version="0.48.3.1 r9886"
   sodipodi:docname="ratingIndicator.svg">
  <defs
     id="defs4" />
  <sodipodi:namedview
     id="base"
     pagecolor="#ffffff"
     bordercolor="#666666"
     borderopacity="1.0"
     inkscape:pageopacity="0.0"
     inkscape:pageshadow="2"
     inkscape:zoom="15.839192"
     inkscape:cx="32.518065"
     inkscape:cy="-2.6551901"
     inkscape:document-units="px"
     inkscape:current-layer="layer1"
     showgrid="false"
     inkscape:window-width="1855"
     inkscape:window-height="1176"
     inkscape:window-x="65"
     inkscape:window-y="24"
     inkscape:window-maximized="1" />
  <metadata
     id="metadata7">
    <rdf:RDF>
      <cc:Work
         rdf:about="">
        <dc:format>image/svg+xml</dc:format>
        <dc:type
           rdf:resource="http://purl.org/dc/dcmitype/StillImage" />
        <dc:title />
      </cc:Work>
    </rdf:RDF>
  </metadata>
  <g
     inkscape:label="Calque 1"
     inkscape:groupmode="layer"
     id="layer1"
     transform="translate(0,-1040.8622)">
    <path
       id="path2985-6"
       style="fill:#000000;fill-opacity:1;fill-rule:evenodd;stroke:#000000;stroke-width:0.05332412px;stroke-linecap:butt;stroke-linejoin:miter;stroke-opacity:1"
       d="m 47.334257,1051.4475 -2.742862,-2.1663 -2.786419,2.1059 1.143989,-3.3677 -2.797166,-2.0906 3.449886,0.086 1.057676,-3.3979 0.988158,3.42 3.450845,-0.01 -2.83917,2.0291 z m -29.138201,0 -2.742862,-2.1663 -2.786421,2.1059 1.143989,-3.3677 -2.797166,-2.0906 3.449887,0.086 1.057675,-3.3979 0.988159,3.42 3.450846,-0.01 -2.839172,2.0291 z m 9.712732,0 -2.742861,-2.1663 -2.78642,2.1059 1.143989,-3.3677 -2.797167,-2.0906 3.449886,0.086 1.057677,-3.3979 0.988157,3.42 3.450846,-0.01 -2.839171,2.0291 z m 9.712737,0 -2.742863,-2.1663 -2.78642,2.1059 1.143988,-3.3677 -2.797166,-2.0906 3.449887,0.086 1.057675,-3.3979 0.98816,3.42 3.450846,-0.01 -2.839173,2.0291 z m -29.1382019,0 -2.7428625,-2.1663 -2.7864199,2.1059 1.1439891,-3.3677 -2.7971657,-2.0906 3.4498843,0.086 1.0576774,-3.3979 0.9881583,3.42 3.4508459,-0.01 -2.8391701,2.0291 z m -8.54575386,-10.7097 50.56680276,0 0,12.0013 -50.56680276,0 z"
       inkscape:connector-curvature="0" />
  </g>
</svg>
